<svg xmlns="http://www.w3.org/2000/svg" viewBox="0 0 750 500"><g id="freepik--background-complete--inject-123"><path d="M692.37,304.22l-13.12.28-6.66.11c-2.23.05-4.47,0-6.7.06h-.44v-.45L665.39,293v-.5h.5l13.24.06c4.42,0,8.83.11,13.24.16h.28V293c0,1.9-.08,3.79-.13,5.66Zm0,0-.14-5.65c-.05-1.86-.11-3.7-.13-5.54l.27.28c-4.41.05-8.82.16-13.24.16l-13.24.06.5-.5,0,11.19-.45-.44c2.18,0,4.36,0,6.55.05L679,304Z" style="fill:#ebebeb"></path><path d="M677.6,318.33l-13.12.28-6.67.11c-2.22,0-4.46,0-6.69.06h-.44v-.45l0-11.19v-.5h.5l13.24.07c4.41,0,8.83.11,13.24.16h.28v.27c0,1.9-.08,3.79-.13,5.66Zm0,0-.14-5.65c-.05-1.86-.11-3.7-.13-5.54l.27.28c-4.41.05-8.83.16-13.24.16l-13.24.06.5-.5,0,11.19-.45-.44c2.18,0,4.36,0,6.55.05l6.57.12Z" style="fill:#ebebeb"></path><path d="M707.14,318.33l-13.12.28-6.66.11c-2.23,0-4.47,0-6.7.06h-.44v-.45l-.06-11.19v-.5h.5l13.24.07c4.42,0,8.83.11,13.24.16h.28v.27c0,1.9-.09,3.79-.13,5.66Zm0,0-.14-5.65c0-1.86-.11-3.7-.13-5.54l.27.28c-4.41.05-8.82.16-13.24.16l-13.24.06.5-.5,0,11.19-.45-.44c2.19,0,4.36,0,6.55.05l6.58.12Z" style="fill:#ebebeb"></path><path d="M314.79,171.07l-13.12.28-6.66.11c-2.23,0-4.47,0-6.7,0h-.44v-.45l-.06-11.19v-.5h.5l13.24.06c4.42,0,8.83.11,13.24.16h.28v.27c0,1.9-.09,3.78-.14,5.65Zm0,0-.14-5.66c0-1.86-.11-3.7-.13-5.53l.27.27c-4.41,0-8.82.16-13.24.16l-13.24.07.5-.5-.05,11.19-.45-.45c2.18,0,4.36,0,6.55.06l6.58.11Z" style="fill:#ebebeb"></path><path d="M300,185.18l-13.12.28-6.67.11c-2.22,0-4.46,0-6.69.05h-.44v-.45L273,174v-.5h.5l13.24.06c4.41,0,8.83.11,13.24.16h.28V174c0,1.9-.08,3.78-.13,5.65Zm0,0-.14-5.66c-.05-1.86-.11-3.7-.13-5.53l.27.27c-4.41.05-8.83.16-13.24.16l-13.24.07.5-.5L274,185.18l-.45-.45c2.18,0,4.36,0,6.55.06l6.57.11Z" style="fill:#ebebeb"></path><path d="M329.56,185.18l-13.12.28-6.66.11c-2.23,0-4.46,0-6.7.05h-.44v-.45L302.58,174v-.5h.5l13.24.06c4.42,0,8.83.11,13.24.16h.28V174c0,1.9-.09,3.78-.13,5.65Zm0,0-.14-5.66c0-1.86-.11-3.7-.13-5.53l.27.27c-4.41.05-8.82.16-13.24.16l-13.24.07.5-.5-.05,11.19-.45-.45c2.19,0,4.36,0,6.55.06l6.58.11Z" style="fill:#ebebeb"></path><path d="M98.88,245.11l-13.12.28-6.67.11c-2.22,0-4.46,0-6.69.05H72v-.45l0-11.19v-.5h.5l13.24.06c4.41,0,8.83.11,13.24.16h.28v.27c0,1.9-.08,3.78-.13,5.65Zm0,0-.14-5.66c0-1.86-.11-3.7-.13-5.53l.27.27c-4.41.05-8.83.16-13.24.16l-13.24.07.5-.5-.05,11.19-.45-.45c2.18,0,4.36,0,6.55.06l6.57.11Z" style="fill:#ebebeb"></path><path d="M537.86,171.06l-13.12.28-6.66.11c-2.23.05-4.47,0-6.7.05h-.44v-.45l-.06-11.19v-.5h.5l13.24.06c4.42,0,8.83.12,13.24.17h.28v.27c0,1.9-.08,3.79-.13,5.65Zm0,0-.14-5.65c-.05-1.87-.11-3.71-.13-5.54l.27.27c-4.41.05-8.82.16-13.24.17l-13.24.06.5-.5-.05,11.19-.45-.45c2.18,0,4.36,0,6.55.06l6.58.11Z" style="fill:#ebebeb"></path><path d="M690.84,62.38l-13.12.28-6.67.11c-2.22,0-4.46,0-6.69.06h-.44v-.45l0-11.19v-.5h.5l13.24.06c4.41,0,8.83.12,13.24.17h.28v.27c0,1.9-.08,3.79-.13,5.65Zm0,0-.14-5.65c-.05-1.87-.11-3.71-.13-5.54l.27.27c-4.41,0-8.83.16-13.24.17l-13.24.06.5-.5-.05,11.19-.45-.45c2.18,0,4.36,0,6.55.06l6.57.11Z" style="fill:#ebebeb"></path><path d="M705.61,76.49l-13.12.28-6.66.11c-2.23.05-4.47,0-6.7.05h-.44v-.45l-.06-11.19v-.5h.5l13.24.06c4.42,0,8.83.12,13.24.17h.28v.27c0,1.9-.09,3.79-.14,5.65Zm0,0-.14-5.65c0-1.87-.11-3.71-.13-5.54l.27.27c-4.41.05-8.82.16-13.24.17l-13.24.06.5-.5,0,11.19-.45-.45c2.18,0,4.36,0,6.55.06l6.58.11Z" style="fill:#ebebeb"></path><path d="M69.34,62.39l-13.13.28-6.66.11c-2.22,0-4.46,0-6.69.06h-.45v-.45l0-11.19v-.5h.51l13.24.07c4.41,0,8.82.11,13.24.16h.27v.27c0,1.9-.09,3.79-.13,5.66Zm0,0-.15-5.65c0-1.87-.11-3.71-.13-5.54l.28.27c-4.42.06-8.83.16-13.24.17l-13.24.06.5-.5L43.3,62.39,42.86,62c2.18,0,4.35,0,6.54,0l6.58.11Z" style="fill:#ebebeb"></path><path d="M61.29,145.65a2.65,2.65,0,0,1,2.78,0l.72.41c.24.13.49.26.74.37a2.65,2.65,0,0,1,1.55,2.31l.11,3.42,11.16-.34-.1-3.43a2.62,2.62,0,0,1,1.4-2.41,13.71,13.71,0,0,0,1.41-.87,2.66,2.66,0,0,1,2.77-.18l3,1.62,5.28-9.85-3-1.62a2.64,2.64,0,0,1-1.38-2.4,15.26,15.26,0,0,0-.06-1.66,2.67,2.67,0,0,1,1.23-2.5l2.92-1.81-5.89-9.49L83,119.05a2.63,2.63,0,0,1-2.77,0c-.24-.14-.47-.28-.72-.41l-.73-.37a2.66,2.66,0,0,1-1.56-2.31l-.1-3.43L66,112.86l.11,3.42a2.68,2.68,0,0,1-1.4,2.41,12.92,12.92,0,0,0-1.42.88,2.66,2.66,0,0,1-2.78.17l-3-1.61L52.18,128l3,1.62A2.65,2.65,0,0,1,56.58,132a15.45,15.45,0,0,0,.05,1.67,2.66,2.66,0,0,1-1.23,2.5L52.49,138l5.89,9.49ZM64.09,128a9.14,9.14,0,1,1,3.74,12.38A9.14,9.14,0,0,1,64.09,128Z" style="fill:#ebebeb"></path><path d="M594.87,355.89a1.85,1.85,0,0,1,.91,1.72c0,.2,0,.39,0,.58s0,.39,0,.58a1.85,1.85,0,0,1-.91,1.72l-2.08,1.2,3.91,6.78,2.08-1.2a1.85,1.85,0,0,1,2,.07,11.41,11.41,0,0,0,1,.58,1.85,1.85,0,0,1,1,1.65V372h7.83v-2.4a1.86,1.86,0,0,1,1-1.65,9.12,9.12,0,0,0,1-.58,1.85,1.85,0,0,1,2-.07l2.08,1.2,3.91-6.78-2.09-1.21a1.84,1.84,0,0,1-.9-1.71c0-.19,0-.39,0-.58s0-.38,0-.58a1.85,1.85,0,0,1,.91-1.72l2.08-1.2-3.91-6.78-2.07,1.2a1.85,1.85,0,0,1-2-.07c-.33-.21-.67-.4-1-.58a1.86,1.86,0,0,1-1-1.65v-2.4h-7.83v2.4a1.85,1.85,0,0,1-1,1.65,11,11,0,0,0-1,.58,1.85,1.85,0,0,1-2,.07l-2.08-1.2-3.91,6.78Zm11.81-4.11a6.41,6.41,0,1,1-6.41,6.41A6.41,6.41,0,0,1,606.68,351.78Z" style="fill:#ebebeb"></path><path d="M629.63,308.5A30.47,30.47,0,1,0,660.1,278,30.48,30.48,0,0,0,629.63,308.5Zm16.24,0a14.24,14.24,0,1,1,14.23,14.22A14.24,14.24,0,0,1,645.87,308.5Z" style="fill:#ebebeb"></path><polygon points="654.24 279.29 665.96 279.29 665.31 270.99 654.89 270.99 654.24 279.29" style="fill:#ebebeb"></polygon><polygon points="676.55 283.24 684.83 291.52 690.24 285.2 682.87 277.83 676.55 283.24" style="fill:#ebebeb"></polygon><polygon points="689.53 301.8 689.53 313.52 697.82 312.87 697.82 302.45 689.53 301.8" style="fill:#ebebeb"></polygon><polygon points="685.58 324.1 677.29 332.39 683.62 337.8 690.99 330.43 685.58 324.1" style="fill:#ebebeb"></polygon><polygon points="667.01 337.08 655.3 337.08 655.95 345.38 666.37 345.38 667.01 337.08" style="fill:#ebebeb"></polygon><polygon points="644.71 333.13 636.42 324.85 631.02 331.17 638.39 338.54 644.71 333.13" style="fill:#ebebeb"></polygon><polygon points="631.73 314.57 631.73 302.85 623.44 303.5 623.44 313.92 631.73 314.57" style="fill:#ebebeb"></polygon><polygon points="635.68 292.27 643.97 283.98 637.64 278.57 630.27 285.94 635.68 292.27" style="fill:#ebebeb"></polygon><path d="M639.81,111c-2.58.58-4.58-1-4.58-3.42a3.5,3.5,0,0,1,2.33-3.41c8.08-2.5,9.25-5.08,9.25-10.74,0-1.67-.17-4.41-.17-6.16,0-6.5,3.08-9.58,8.66-11.41-5.5-1.75-8.66-4.92-8.66-11.41,0-1.75.17-4.5.17-6.16,0-5.66-1.17-8.25-9.25-10.74a3.52,3.52,0,0,1-2.33-3.42c0-2.41,2-4,4.58-3.41,12.91,2.83,16.32,8,16.32,16.07,0,1.25-.17,4.58-.17,6,0,6.17,2.17,8.83,7.83,9.08,2.67.17,4.25,1.75,4.25,4s-1.58,3.83-4.25,4c-5.66.17-7.83,2.92-7.83,9,0,1.41.17,4.74.17,6C656.13,103,652.72,108.13,639.81,111Z" style="fill:#ebebeb"></path><path d="M623.66,40.68c2.58-.59,4.57,1,4.57,3.41a3.47,3.47,0,0,1-2.41,3.42c-8,2.49-9.16,5.08-9.16,10.74,0,1.66.17,4.41.17,6.16,0,6.49-3.08,9.58-8.66,11.41,5.49,1.75,8.66,4.91,8.66,11.41,0,1.75-.17,4.49-.17,6.16,0,5.66,1.17,8.24,9.16,10.74a3.46,3.46,0,0,1,2.41,3.41c0,2.42-2,4-4.57,3.42-12.91-2.83-16.33-8-16.33-16.16,0-1.25.17-4.58.17-6,0-6.08-2.25-8.83-7.91-9-2.58-.16-4.16-1.74-4.16-4s1.58-3.83,4.16-4c5.66-.25,7.91-2.91,7.91-9.08,0-1.41-.17-4.74-.17-6C607.33,48.67,610.75,43.51,623.66,40.68Z" style="fill:#ebebeb"></path><path d="M95.29,231.34a3.39,3.39,0,0,1-2.36,5.81,3.61,3.61,0,0,1-2.48-1L75.32,220.84a.42.42,0,0,1-.27-.33,1.34,1.34,0,0,0-.17-.11,1.88,1.88,0,0,1-.16-.43.27.27,0,0,1-.16-.21c0-.11,0-.27-.11-.33s-.11-.21-.11-.27v-.37c0-.11,0-.16,0-.32s0-.22,0-.27v-.38c0-.11.11-.16.11-.22s.06-.26.11-.43,0,0,0-.1a5.14,5.14,0,0,1,.27-.49.11.11,0,0,1,.11-.11.93.93,0,0,1,.33-.37l15.13-15.35a3.49,3.49,0,0,1,4.84,0,3.4,3.4,0,0,1,0,4.84L82.53,218.47Z" style="fill:#ebebeb"></path><path d="M109,233.06l13.2-31.4a3,3,0,0,1,3.93-1.56,2.91,2.91,0,0,1,1.51,3.82l-13.2,31.46a3,3,0,0,1-2.75,1.77,2.55,2.55,0,0,1-1.07-.21A2.92,2.92,0,0,1,109,233.06Z" style="fill:#ebebeb"></path><path d="M153.7,220.4s0,.06,0,.06a3.4,3.4,0,0,1-.38.38l-15.13,15.35a3.51,3.51,0,0,1-2.43,1,3.47,3.47,0,0,1-2.42-1,3.41,3.41,0,0,1,0-4.85l12.76-12.87-12.76-12.88a3.4,3.4,0,0,1,0-4.84,3.5,3.5,0,0,1,4.85,0l15.13,15.35a2.23,2.23,0,0,1,.38.37s0,.11,0,.11a4.24,4.24,0,0,1,.27.49c0,.05.06.05.06.1a2.62,2.62,0,0,0,.15.49c0,.05.06.05.06.16v.38c0,.05.06.21.06.27s-.06.21-.06.26v.43c0,.06-.06.06-.06.11-.1.22-.1.38-.15.49s-.06.05-.06.16S153.81,220.19,153.7,220.4Z" style="fill:#ebebeb"></path></g><g id="freepik--Floor--inject-123"><polygon points="50.72 447.25 131.79 447.01 212.86 446.92 375 446.75 537.14 446.92 618.21 447.01 699.28 447.25 618.21 447.5 537.14 447.59 375 447.75 212.86 447.58 131.79 447.5 50.72 447.25" style="fill:#263238"></polygon></g><g id="freepik--Device--inject-123"><rect x="71.48" y="425.14" width="607.03" height="22.11" style="fill:#c7c7c7"></rect><rect x="134.21" y="103" width="481.59" height="322.15" style="fill:#dbdbdb"></rect><rect x="137.71" y="106.93" width="474.59" height="314.29" style="fill:#37474f"></rect><rect x="158.72" y="127.13" width="432.56" height="273.88" style="fill:#263238"></rect><rect x="158.72" y="127.13" width="432.56" height="10.54" style="fill:#407BFF"></rect><path d="M168.64,132.4a2,2,0,1,1-2-2A2,2,0,0,1,168.64,132.4Z" style="fill:#c7c7c7"></path><path d="M176.79,132.4a2,2,0,1,1-2-2A2,2,0,0,1,176.79,132.4Z" style="fill:#fff"></path><path d="M184.93,132.4a2,2,0,1,1-2-2A2,2,0,0,1,184.93,132.4Z" style="fill:#455a64"></path><rect x="186.36" y="184.49" width="9.94" height="1.95" style="fill:#ebebeb"></rect><rect x="208.03" y="184.49" width="220.3" height="1.95" style="fill:#ebebeb"></rect><rect x="434.44" y="184.49" width="18.88" height="1.95" style="fill:#407BFF"></rect><rect x="464.65" y="230.45" width="63.72" height="1.94" style="fill:#ebebeb"></rect><rect x="457.42" y="184.49" width="93.54" height="1.95" style="fill:#a6a6a6"></rect><rect x="186.36" y="193.68" width="9.94" height="1.95" style="fill:#ebebeb"></rect><rect x="217.71" y="193.68" width="74.82" height="1.95" style="fill:#a6a6a6"></rect><rect x="431.86" y="230.45" width="28.3" height="1.94" style="fill:#a6a6a6"></rect><rect x="208.03" y="221.26" width="71.46" height="1.95" style="fill:#a6a6a6"></rect><rect x="217.71" y="202.88" width="50.13" height="1.95" style="fill:#407BFF"></rect><rect x="447.06" y="212.07" width="94.97" height="1.94" style="fill:#a6a6a6"></rect><rect x="333.36" y="257.18" width="94.97" height="1.94" style="fill:#a6a6a6"></rect><rect x="273.41" y="202.88" width="186.36" height="1.95" style="fill:#a6a6a6"></rect><rect x="208.03" y="230.45" width="217.37" height="1.94" style="fill:#407BFF"></rect><rect x="297.23" y="193.68" width="153.98" height="1.95" style="fill:#ebebeb"></rect><rect x="467.73" y="202.88" width="32.24" height="1.95" style="fill:#ebebeb"></rect><rect x="186.36" y="202.88" width="9.94" height="1.95" style="fill:#ebebeb"></rect><rect x="186.36" y="212.07" width="9.94" height="1.94" style="fill:#a6a6a6"></rect><rect x="208.03" y="212.07" width="58.74" height="1.94" style="fill:#ebebeb"></rect><rect x="217.71" y="239.64" width="58.74" height="1.95" style="fill:#ebebeb"></rect><rect x="433.54" y="248.83" width="82" height="1.95" style="fill:#407BFF"></rect><rect x="270.83" y="248.83" width="157.57" height="1.95" style="fill:#ebebeb"></rect><rect x="217.71" y="248.83" width="44.15" height="1.95" style="fill:#a6a6a6"></rect><rect x="283.53" y="221.26" width="169.78" height="1.95" style="fill:#ebebeb"></rect><rect x="457.42" y="221.26" width="101.3" height="1.95" style="fill:#407BFF"></rect><rect x="272.73" y="212.07" width="169.71" height="1.94" style="fill:#407BFF"></rect><rect x="186.36" y="221.26" width="9.94" height="1.95" style="fill:#ebebeb"></rect><rect x="186.36" y="230.45" width="9.94" height="1.94" style="fill:#ebebeb"></rect><rect x="186.36" y="239.64" width="9.94" height="1.95" style="fill:#a6a6a6"></rect><rect x="186.36" y="248.83" width="9.94" height="1.95" style="fill:#ebebeb"></rect><rect x="186.36" y="257.18" width="9.94" height="1.94" style="fill:#ebebeb"></rect><rect x="208.03" y="257.18" width="116.53" height="1.94" style="fill:#ebebeb"></rect><rect x="186.36" y="266.37" width="9.94" height="1.95" style="fill:#ebebeb"></rect><rect x="217.71" y="266.37" width="74.82" height="1.95" style="fill:#a6a6a6"></rect><rect x="208.03" y="293.94" width="71.46" height="1.94" style="fill:#a6a6a6"></rect><rect x="217.71" y="275.56" width="50.13" height="1.95" style="fill:#407BFF"></rect><rect x="332.52" y="312.33" width="50.13" height="1.95" style="fill:#407BFF"></rect><rect x="217.71" y="330.71" width="50.13" height="1.95" style="fill:#407BFF"></rect><rect x="273.41" y="275.56" width="186.36" height="1.95" style="fill:#a6a6a6"></rect><rect x="208.03" y="303.13" width="217.37" height="1.95" style="fill:#407BFF"></rect><rect x="297.23" y="266.37" width="153.98" height="1.95" style="fill:#ebebeb"></rect><rect x="451.64" y="284.75" width="32.18" height="1.95" style="fill:#ebebeb"></rect><rect x="186.36" y="275.56" width="9.94" height="1.95" style="fill:#ebebeb"></rect><rect x="186.36" y="284.75" width="9.94" height="1.95" style="fill:#a6a6a6"></rect><rect x="208.03" y="284.75" width="58.74" height="1.95" style="fill:#ebebeb"></rect><rect x="283.53" y="293.94" width="169.78" height="1.94" style="fill:#ebebeb"></rect><rect x="272.73" y="284.75" width="169.71" height="1.95" style="fill:#407BFF"></rect><rect x="186.36" y="293.94" width="9.94" height="1.94" style="fill:#ebebeb"></rect><rect x="186.36" y="312.33" width="9.94" height="1.95" style="fill:#ebebeb"></rect><rect x="208.03" y="312.33" width="116.53" height="1.95" style="fill:#ebebeb"></rect><rect x="186.36" y="321.52" width="9.94" height="1.95" style="fill:#ebebeb"></rect><rect x="217.71" y="321.52" width="74.82" height="1.95" style="fill:#a6a6a6"></rect><rect x="208.03" y="349.09" width="71.46" height="1.95" style="fill:#a6a6a6"></rect><rect x="273.41" y="330.71" width="186.36" height="1.95" style="fill:#a6a6a6"></rect><rect x="451.64" y="339.9" width="32.18" height="1.95" style="fill:#ebebeb"></rect><rect x="186.36" y="330.71" width="9.94" height="1.95" style="fill:#ebebeb"></rect><rect x="186.36" y="339.9" width="9.94" height="1.95" style="fill:#a6a6a6"></rect><rect x="208.03" y="339.9" width="58.74" height="1.95" style="fill:#ebebeb"></rect><rect x="283.53" y="349.09" width="169.78" height="1.95" style="fill:#ebebeb"></rect><rect x="272.73" y="339.9" width="169.71" height="1.95" style="fill:#407BFF"></rect><rect x="186.36" y="349.09" width="9.94" height="1.95" style="fill:#ebebeb"></rect><path d="M191.18,167a.67.67,0,0,1,0,1,.69.69,0,0,1-.47.2.71.71,0,0,1-.49-.2l-3-3.05a.07.07,0,0,1-.06-.06l0,0a.47.47,0,0,1,0-.09.05.05,0,0,1,0,0s0-.06,0-.07,0,0,0,0v-.08s0,0,0-.06v-.13s0,0,0,0,0-.06,0-.09,0,0,0,0,0-.07.05-.1a0,0,0,0,1,0,0,.15.15,0,0,1,.07-.07l3-3a.69.69,0,0,1,1,0,.67.67,0,0,1,0,1l-2.54,2.56Z" style="fill:#407BFF"></path><path d="M193.91,167.35l2.62-6.24a.59.59,0,0,1,.78-.31.57.57,0,0,1,.3.76L195,167.81a.6.6,0,0,1-.55.36.41.41,0,0,1-.21,0A.57.57,0,0,1,193.91,167.35Z" style="fill:#407BFF"></path><path d="M202.8,164.84h0l-.08.07-3,3.05a.68.68,0,0,1-1,0,.67.67,0,0,1,0-1l2.54-2.56-2.54-2.56a.67.67,0,0,1,0-1,.69.69,0,0,1,1,0l3,3,.08.07s0,0,0,0,0,.07,0,.1,0,0,0,0a.54.54,0,0,0,0,.1s0,0,0,0v.08l0,0s0,0,0,.05v.09s0,0,0,0a.93.93,0,0,0,0,.1s0,0,0,0A.89.89,0,0,0,202.8,164.84Z" style="fill:#407BFF"></path></g><g id="freepik--Windows--inject-123"><rect x="537.66" y="117.31" width="103.1" height="65.77" style="fill:#fff"></rect><path d="M641.41,183.73H537V116.66h104.4Zm-103.1-1.3H640.1V118H538.31Z" style="fill:#ebebeb"></path><rect x="537.66" y="117.31" width="103.1" height="12.44" style="fill:#407BFF"></rect><path d="M641.41,130.4H537V116.66h104.4Zm-103.1-1.3H640.1V118H538.31Z" style="fill:#ebebeb"></path><path d="M555.45,154.34a12.73,12.73,0,0,1,12.72-12.47,13,13,0,0,1,8,2.7,2,2,0,0,1-2.43,3.16,8.61,8.61,0,0,0-5.57-1.91,9.2,9.2,0,0,0-6.24,2.49,8.57,8.57,0,0,0-2.53,6,8.43,8.43,0,0,0,2.53,6,9.2,9.2,0,0,0,6.24,2.49,8.74,8.74,0,0,0,5.57-1.9,2.1,2.1,0,0,1,2.77.38,2,2,0,0,1-.34,2.77,13,13,0,0,1-8,2.7A12.68,12.68,0,0,1,555.45,154.34Z" style="fill:#ebebeb"></path><path d="M582.47,160.78a1.81,1.81,0,0,1,2.53-.24,11.31,11.31,0,0,0,6.62,2.67,7.49,7.49,0,0,0,4.33-1.28,3.13,3.13,0,0,0,1.48-2.5,1.92,1.92,0,0,0-.31-1.1,3.1,3.1,0,0,0-1-1,13.76,13.76,0,0,0-4.74-1.63h-.07a18.86,18.86,0,0,1-4.47-1.35,7.42,7.42,0,0,1-3.22-2.71,5.31,5.31,0,0,1-.8-2.84,6.41,6.41,0,0,1,2.77-5,10.26,10.26,0,0,1,6-1.84c3.32,0,5.78,1.63,7.55,2.77a1.79,1.79,0,0,1,.48,2.46,1.75,1.75,0,0,1-2.46.52c-1.76-1.18-3.46-2.22-5.57-2.22a6.62,6.62,0,0,0-3.88,1.18,2.75,2.75,0,0,0-1.32,2.18,1.68,1.68,0,0,0,.24,1,3.56,3.56,0,0,0,.94.91,12.08,12.08,0,0,0,4.33,1.52h.07a21.12,21.12,0,0,1,4.78,1.45,8.17,8.17,0,0,1,3.46,2.88,5.6,5.6,0,0,1,.83,2.94,6.67,6.67,0,0,1-3,5.37,10.77,10.77,0,0,1-6.4,2,14.93,14.93,0,0,1-8.87-3.47A1.84,1.84,0,0,1,582.47,160.78Z" style="fill:#ebebeb"></path><path d="M605.23,160.78a1.81,1.81,0,0,1,2.53-.24,11.28,11.28,0,0,0,6.61,2.67,7.49,7.49,0,0,0,4.33-1.28,3.12,3.12,0,0,0,1.49-2.5,1.92,1.92,0,0,0-.31-1.1,3.19,3.19,0,0,0-1-1,13.76,13.76,0,0,0-4.74-1.63H614a18.72,18.72,0,0,1-4.47-1.35,7.42,7.42,0,0,1-3.22-2.71,5.31,5.31,0,0,1-.8-2.84,6.41,6.41,0,0,1,2.77-5,10.23,10.23,0,0,1,6-1.84c3.33,0,5.79,1.63,7.56,2.77a1.8,1.8,0,0,1,.48,2.46,1.75,1.75,0,0,1-2.46.52c-1.77-1.18-3.46-2.22-5.58-2.22a6.65,6.65,0,0,0-3.88,1.18,2.76,2.76,0,0,0-1.31,2.18,1.68,1.68,0,0,0,.24,1,3.41,3.41,0,0,0,.94.91,12,12,0,0,0,4.33,1.52h.06a21.06,21.06,0,0,1,4.79,1.45,8.17,8.17,0,0,1,3.46,2.88,5.6,5.6,0,0,1,.83,2.94,6.7,6.7,0,0,1-3,5.37,10.83,10.83,0,0,1-6.41,2,15,15,0,0,1-8.87-3.47A1.84,1.84,0,0,1,605.23,160.78Z" style="fill:#ebebeb"></path><path d="M547.06,123.62a2,2,0,1,1-2-2A2,2,0,0,1,547.06,123.62Z" style="fill:#c7c7c7"></path><path d="M555.21,123.62a2,2,0,1,1-2-2A2,2,0,0,1,555.21,123.62Z" style="fill:#fff"></path><path d="M563.35,123.62a2,2,0,1,1-2-2A2,2,0,0,1,563.35,123.62Z" style="fill:#455a64"></path><rect x="483.06" y="71.42" width="70.23" height="26" style="fill:#455a64"></rect><path d="M493.2,89.81V78.28a1.05,1.05,0,0,1,1.07-1.07,1.07,1.07,0,0,1,1.1,1.07V83h5.06V78.28a1.05,1.05,0,0,1,1.08-1.07,1.07,1.07,0,0,1,1.09,1.07V89.81a1.08,1.08,0,0,1-1.09,1.08,1.06,1.06,0,0,1-1.08-1.08V85.12h-5.06v4.69a1.08,1.08,0,0,1-1.1,1.08A1.06,1.06,0,0,1,493.2,89.81Z" style="fill:#fff"></path><path d="M515.42,79.38h-3.1V89.81a1.08,1.08,0,1,1-2.15,0V79.38h-3.09a1.09,1.09,0,0,1-1.08-1.1,1.05,1.05,0,0,1,1.08-1.07h8.34a1.07,1.07,0,0,1,1.08,1.07A1.11,1.11,0,0,1,515.42,79.38Z" style="fill:#fff"></path><path d="M531.49,78.28V89.81a1.1,1.1,0,0,1-1.09,1.08,1.08,1.08,0,0,1-1.08-1.08V81.58l-2.81,3.91a1.06,1.06,0,0,1-.88.45h0a1.09,1.09,0,0,1-.9-.45l-2.8-3.91v8.23a1.09,1.09,0,0,1-2.17,0V78.28a1.08,1.08,0,0,1,1.08-1.07h.06a1.07,1.07,0,0,1,.86.44l3.89,5.4,3.89-5.4a1.06,1.06,0,0,1,.88-.44h0A1.11,1.11,0,0,1,531.49,78.28Z" style="fill:#fff"></path><path d="M536.22,89.81V78.28a1.07,1.07,0,0,1,1.08-1.07,1.08,1.08,0,0,1,1.09,1.07V88.72h5.3a1.09,1.09,0,0,1,0,2.17H537.3A1.08,1.08,0,0,1,536.22,89.81Z" style="fill:#fff"></path></g><g id="freepik--speech-bubble--inject-123"><polygon points="196.23 265.7 196.23 309.07 202.32 309.07 202.32 319.6 212.84 309.07 270.58 309.07 270.58 265.7 196.23 265.7" style="fill:#fff"></polygon><path d="M196.23,265.7l.16,21.75q.11,10.85.12,21.62l-.28-.28h6.38v.29l0,10.52-.55-.22,10.49-10.55.11-.11h.15l28.87-.08c9.62,0,19.25-.09,28.87,0l-.48.48.12-43.37.36.36-37.07-.12Zm0,0,37.07-.25,37.28-.12h.36v.37l.11,43.37v.48h-.48c-9.62.05-19.25,0-28.87,0l-28.87-.07.26-.11-10.55,10.49-.56.56v-.79l0-10.52.3.3-6.09,0H196v-.28q0-10.89.12-21.75Z" style="fill:#263238"></path><path d="M223.42,294.33a1.79,1.79,0,0,1-1.24,3.06,1.87,1.87,0,0,1-1.3-.51l-8-8.07c-.08,0-.11-.08-.14-.17a.28.28,0,0,0-.08-.05.84.84,0,0,1-.09-.23.15.15,0,0,1-.08-.11c0-.06,0-.15-.06-.17s-.06-.12-.06-.14v-.2c0-.06,0-.09,0-.17s0-.12,0-.14v-.2c0-.06.06-.09.06-.12s0-.14.06-.22,0,0,0-.06.09-.2.15-.25,0-.06.05-.06a.6.6,0,0,1,.17-.2l8-8.06a1.84,1.84,0,0,1,2.54,0,1.78,1.78,0,0,1,0,2.54l-6.7,6.77Z" style="fill:#407BFF"></path><path d="M230.63,295.24l6.93-16.5a1.58,1.58,0,0,1,2.07-.82,1.53,1.53,0,0,1,.79,2l-6.93,16.52a1.57,1.57,0,0,1-1.45.94,1.4,1.4,0,0,1-.56-.11A1.54,1.54,0,0,1,230.63,295.24Z" style="fill:#407BFF"></path><path d="M254.12,288.59s0,0,0,0a1.26,1.26,0,0,1-.2.2l-8,8.07a1.8,1.8,0,1,1-2.54-2.55l6.7-6.76-6.7-6.77a1.78,1.78,0,0,1,0-2.54,1.84,1.84,0,0,1,2.54,0l8,8.06a1.89,1.89,0,0,1,.2.2s0,.06,0,.06.11.17.14.25,0,0,0,.06a1.29,1.29,0,0,0,.09.25s0,0,0,.09v.2s0,.11,0,.14,0,.11,0,.14v.23s0,0,0,.05a2.06,2.06,0,0,0-.09.26s0,0,0,.08A2.62,2.62,0,0,0,254.12,288.59Z" style="fill:#407BFF"></path></g><g id="freepik--Plant--inject-123"><path d="M697.63,350.21c-13.26,18-27.09,38.81-30.46,61.34,0,.34.51.45.58.11a133.79,133.79,0,0,1,5.87-18c8.72-2.4,17.28-4.37,21.86-13,4.67-8.9,4.08-20.5,3.19-30.19C698.6,349.89,697.9,349.86,697.63,350.21Z" style="fill:#407BFF"></path><path d="M673.75,393.45c6-13.37,13.61-26.79,23.33-37.79.07-.07.17,0,.11.11-6.37,7.83-11.2,16.36-15.93,25,4.39-4.46,9.21-8.46,13.37-13.18.08-.1.21,0,.13.13-4.13,5-8.64,10.34-14,14-1.45,2.66-2.9,5.33-4.38,8,.36-.2.74-.38,1.11-.56a.06.06,0,0,1,0,.1c-.41.21-.81.42-1.24.6-.69,1.27-1.39,2.53-2.1,3.79C674,394,673.63,393.74,673.75,393.45Z" style="fill:#263238"></path><path d="M678.18,388.79a78.2,78.2,0,0,0,10.19-6.8c.08-.07.21.05.12.13A53.59,53.59,0,0,1,678.33,389C678.17,389.12,678,388.88,678.18,388.79Z" style="fill:#263238"></path><path d="M665.64,408.2c0,.27.49.27.48,0,.07-7.42,0-14.88.12-22.33,1.9-3.83,6-6,8.81-9a39.51,39.51,0,0,0,5.3-7.37A53,53,0,0,0,686.48,349c.79-7.94-2.22-34.12-5.57-33.21-1.73.47-7.35,13.44-8.84,17.73a123.75,123.75,0,0,0-5.28,21.74C664.08,372.7,664.31,390.63,665.64,408.2Z" style="fill:#407BFF"></path><path d="M665.58,376.2l0,0c.4-9.39,2.52-18.87,4.5-28,2.13-9.81,4.62-19.05,9.67-27.79.09-.17.33,0,.25.14a103.11,103.11,0,0,0-7.77,21.33c.34-.52.75-1,1.1-1.53.14-.19.46,0,.33.2a14.62,14.62,0,0,1-1.58,2.22.09.09,0,0,1-.07,0c-1.73,7-3,14.18-4,21.34l.24-.28c0-.06.15,0,.11.08-.13.24-.28.48-.43.71-.54,3.63-1,7.26-1.53,10.85,6.46-5.53,12-12,15.09-20.06,0,0,.08,0,.06,0-3,8.33-7.85,15.73-15.26,20.78-.13,1-.27,1.93-.41,2.89,0,.2-.34.15-.34,0,0-.86,0-1.72.08-2.57A.19.19,0,0,1,665.58,376.2Z" style="fill:#263238"></path><path d="M668.63,362.6c4.94-7.38,9.55-14.54,13.17-22.69,0-.09.19,0,.16.07-3.05,8.1-7.31,16.3-13.09,22.81C668.76,362.92,668.53,362.74,668.63,362.6Z" style="fill:#263238"></path><path d="M675.19,338.09c2-3.62,4.21-7.14,6.13-10.83a.09.09,0,1,1,.15.08,56,56,0,0,1-6,10.94C675.37,338.46,675.07,338.3,675.19,338.09Z" style="fill:#263238"></path><path d="M674.39,339.67a0,0,0,0,1,0,.06A0,0,0,1,1,674.39,339.67Z" style="fill:#263238"></path><path d="M660.61,386.74a74.68,74.68,0,0,1-1.73,14.62c.08.53.15,1.06.23,1.6a69.39,69.39,0,0,0,2.61-16.29.51.51,0,0,0,0-.51h0a108.22,108.22,0,0,0-1.64-22.07c-2.3-13.64-7.32-26.72-16.83-36.94a.68.68,0,0,0-1,.22c-3.83,9.75-2.49,21.39.77,31.13a57.14,57.14,0,0,0,7.54,14.78C653.81,377.86,658,381.74,660.61,386.74Z" style="fill:#407BFF"></path><path d="M644.41,331.7c9,14.63,15.28,32,16.05,49.24,0,.31-.5.39-.55.08-.21-1.55-.45-3.09-.7-4.62h0c-3.73-3.57-7.56-7.34-10.23-11.8,0-.08.07-.17.13-.1A124,124,0,0,0,659,375.3q-1-5.73-2.31-11.28l-.72-.84c-.15-.18.11-.45.27-.27l.22.24a133,133,0,0,0-4.71-15c-2.3-2.73-4.86-5.1-6.53-8.39a.07.07,0,0,1,.12-.07c1.34,1.88,2.64,3.78,4.17,5.53.6.69,1.27,1.35,1.9,2a115.1,115.1,0,0,0-7.38-15.38A.2.2,0,0,1,644.41,331.7Z" style="fill:#263238"></path><path d="M646.23,349.75c2.91,3.92,6.23,7.66,8.94,11.71.08.11-.09.23-.19.14-3.48-3.26-6.42-7.72-9-11.74A.11.11,0,0,1,646.23,349.75Z" style="fill:#263238"></path><path d="M655.58,362.36l.12.13c.09.08-.05.22-.13.13l-.13-.12A.1.1,0,0,1,655.58,362.36Z" style="fill:#263238"></path><path d="M630.29,359.82c.72,7.52,4.68,16.51,9.51,22.31a23.84,23.84,0,0,0,7.71,6c3.34,1.65,6.84,3.55,10.29,4.91A67.69,67.69,0,0,1,661.45,406l.33-1.15c-2.22-19.05-14.55-35.33-30.31-45.78A.77.77,0,0,0,630.29,359.82Z" style="fill:#407BFF"></path><path d="M635.74,365.45c-.11-.1,0-.3.16-.21A64.54,64.54,0,0,1,656,390c.12.26-.24.49-.39.23q-1.1-1.92-2.24-3.76h0c-3.6-.68-7-3.21-9.68-5.61a.08.08,0,0,1,.11-.11,22.21,22.21,0,0,0,4.55,3.2c1.47.74,3,1.21,4.57,1.81-1.33-2.12-2.72-4.15-4.17-6.12a42,42,0,0,1-10.82-6.08c-.1-.07,0-.24.1-.17a106.88,106.88,0,0,0,10.06,5.37,90.91,90.91,0,0,0-7.1-8.27c-1.22-.65-2.47-1.3-3.65-2a.1.1,0,0,1,.08-.18,13.42,13.42,0,0,1,2.8,1.37C638.77,368.25,637.31,366.83,635.74,365.45Z" style="fill:#263238"></path><path d="M636.07,372a4.51,4.51,0,0,1,.61.44c.06.05,0,.12-.08.1a4.89,4.89,0,0,1-.63-.36C635.86,372.13,636,372,636.07,372Z" style="fill:#263238"></path><polygon points="686.39 447.25 643.18 447.25 646.67 407.91 647.43 399.23 682.13 399.23 682.9 407.91 686.39 447.25" style="fill:#455a64"></polygon><polygon points="682.9 407.91 646.67 407.91 647.43 399.23 682.13 399.23 682.9 407.91" style="fill:#263238"></polygon><rect x="645.37" y="393.16" width="38.83" height="8.59" style="fill:#455a64"></rect></g></svg>